<svg xmlns="http://www.w3.org/2000/svg" version="1.1" xmlns:xlink="http://www.w3.org/1999/xlink" xmlns:svgjs="http://svgjs.dev/svgjs" width="1440" height="560" preserveAspectRatio="none" viewBox="0 0 1440 560"><g mask="url(&quot;#SvgjsMask1000&quot;)" fill="none"><rect width="1440" height="560" x="0" y="0" fill="#0e2a47"></rect><path d="M1121.7213034669594 184.15409743450493L1246.4782844218573 227.1113709279291 1289.4355579152814 102.35438997303118 1164.6785769603835 59.39711647960702z" fill="rgba(28, 83, 142, 0.4)" class="triangle-float3"></path><path d="M578.2860790769425 113.65892614697081L504.8007239256192 222.6054454516194 613.7472432302678 296.09080060294275 687.2325983815912 187.14428129829417z" fill="rgba(28, 83, 142, 0.4)" class="triangle-float2"></path><path d="M1092.654437263165 473.7981747713968L1009.6017607145277 340.6038159402136 943.0793775009695 460.61337205193865z" fill="rgba(28, 83, 142, 0.4)" class="triangle-float3"></path><path d="M288.428,456.89C313.929,456.21,333.458,436.413,345.429,413.886C356.582,392.899,359.224,367.528,346.627,347.375C334.656,328.224,311.012,322.877,288.428,322.694C265.427,322.508,241.278,327.244,228.575,346.42C214.626,367.478,213.878,394.862,225.911,417.071C238.526,440.354,261.956,457.595,288.428,456.89" fill="rgba(28, 83, 142, 0.4)" class="triangle-float2"></path><path d="M1340.708974369437 292.2705272876887L1403.4964366317708 246.65276572857158 1303.6760631619284 175.2804531146296z" fill="rgba(28, 83, 142, 0.4)" class="triangle-float1"></path><path d="M821.3048820243906 238.9590632210625L897.7030260268975 307.74826105776845 966.4922238636034 231.35011705526153 890.0940798610966 162.56091921855563z" fill="rgba(28, 83, 142, 0.4)" class="triangle-float2"></path></g><defs><mask id="SvgjsMask1000"><rect width="1440" height="560" fill="#ffffff"></rect></mask><style>
                @keyframes float1 {
                    0%{transform: translate(0, 0)}
                    50%{transform: translate(-10px, 0)}
                    100%{transform: translate(0, 0)}
                }

                .triangle-float1 {
                    animation: float1 5s infinite;
                }

                @keyframes float2 {
                    0%{transform: translate(0, 0)}
                    50%{transform: translate(-5px, -5px)}
                    100%{transform: translate(0, 0)}
                }

                .triangle-float2 {
                    animation: float2 4s infinite;
                }

                @keyframes float3 {
                    0%{transform: translate(0, 0)}
                    50%{transform: translate(0, -10px)}
                    100%{transform: translate(0, 0)}
                }

                .triangle-float3 {
                    animation: float3 6s infinite;
                }
            </style></defs></svg>